{"title":"Dhoom Machale - Dhoom 3 - Full HD 1080p - TheCodeGuru","uid":9258070,"size":172256522,"categoryP":"video","categoryS":"music_videos","magnet":"?xt=urn:btih:59469597f185e9e1a9dca0cfa7757406db00b935&amp;dn=Dhoom+Machale+-+Dhoom+3+-+Full+HD+1080p+-+TheCodeGuru&amp;tr=udp%3A%2F%2Ftracker.openbittorrent.com%3A80&amp;tr=udp%3A%2F%2Fopen.demonii.com%3A1337&amp;tr=udp%3A%2F%2Ftracker.coppersurfer.tk%3A6969&amp;tr=udp%3A%2F%2Fexodus.desync.com%3A6969","seeders":1,"leechers":0,"uploader":"TheCodeGuru","files":7,"time":1385583980,"description":"General\nComplete name                            : Dhoom Machale - Dhoom 3 - Video Song - Full HD 1080p - TheCodeGuru.mp4\nFormat                                   : MPEG-4\nFormat profile                           : Base Media / Version 2\nCodec ID                                 : mp42\nFile size                                : 146 MiB\nDuration                                 : 3mn 32s\nOverall bit rate mode                    : Variable\nOverall bit rate                         : 5 790 Kbps\nEncoded date                             : UTC 2013-11-27 17:41:47\nTagged date                              : UTC 2013-11-27 17:52:32\n\n\nVideo\nID                                       : 1\nFormat                                   : AVC\nFormat/Info                              : Advanced Video Codec\nFormat profile                           : &lt;a class=&quot;__cf_email__&quot; href=&quot;/cdn-cgi/l/email-protection&quot; data-cfemail=&quot;367b575f58767a021806&quot;&gt;[email&amp;#160;protected]&lt;/a&gt;&lt;script cf-hash='f9e31' type=&quot;text/javascript&quot;&gt;\n/* &lt;![CDATA[ */!function(){try{var t=&quot;currentScript&quot;in document?document.currentScript:function(){for(var t=document.getElementsByTagName(&quot;script&quot;),e=t.length;e--;)if(t[e].getAttribute(&quot;cf-hash&quot;))return t[e]}();if(t&amp;&amp;t.previousSibling){var e,r,n,i,c=t.previousSibling,a=c.getAttribute(&quot;data-cfemail&quot;);if(a){for(e=&quot;&quot;,r=parseInt(a.substr(0,2),16),n=2;a.length-n;n+=2)i=parseInt(a.substr(n,2),16)^r,e+=String.fromCharCode(i);e=document.createTextNode(e),c.parentNode.replaceChild(e,c)}}}catch(u){}}();/* ]]&gt; */&lt;/script&gt;\nFormat settings, CABAC                   : Yes\nFormat settings, ReFrames                : 4 frames\nCodec ID                                 : avc1\nCodec ID/Info                            : Advanced Video Coding\nDuration                                 : 3mn 32s\nBit rate mode                            : Variable\nBit rate                                 : 5 532 Kbps\nWidth                                    : 1 920 pixels\nHeight                                   : 1 080 pixels\nDisplay aspect ratio                     : 16:9\nFrame rate mode                          : Constant\nFrame rate                               : 24.000 fps\nColor space                              : YUV\nChroma subsampling                       : 4:2:0\nBit depth                                : 8 bits\nScan type                                : Progressive\nBits/(Pixel*Frame)                       : 0.111\nStream size                              : 140 MiB (96%)\nWriting library                          : x264 core 130 r2273 b3065e6\nColor primaries                          : BT.709\nTransfer characteristics                 : BT.709\nMatrix coefficients                      : BT.709\n\nAudio\nID                                       : 2\nFormat                                   : AAC\nFormat/Info                              : Advanced Audio Codec\nFormat profile                           : LC\nCodec ID                                 : 40\nDuration                                 : 3mn 32s\nBit rate mode                            : Variable\nBit rate                                 : 256 Kbps\nMaximum bit rate                         : 292 Kbps\nChannel(s)                               : 2 channels\nChannel positions                        : Front: L R\nSampling rate                            : 44.1 KHz\nStream size                              : 6.47 MiB (4%)\n\nScreenshots &lt;a href=&quot;\nhttp://someimage.com/apVlwLJ&quot; rel=&quot;nofollow&quot; target=&quot;_NEW&quot;&gt;\nhttp://someimage.com/apVlwLJ&lt;/a&gt; &lt;a href=&quot;\nhttp://someimage.com/2EORecd&quot; rel=&quot;nofollow&quot; target=&quot;_NEW&quot;&gt;\nhttp://someimage.com/2EORecd&lt;/a&gt; &lt;a href=&quot;\nhttp://someimage.com/tdgPbGo&quot; rel=&quot;nofollow&quot; target=&quot;_NEW&quot;&gt;\nhttp://someimage.com/tdgPbGo&lt;/a&gt; &lt;a href=&quot;\nhttp://someimage.com/U3CAi7B&quot; rel=&quot;nofollow&quot; target=&quot;_NEW&quot;&gt;\nhttp://someimage.com/U3CAi7B&lt;/a&gt; &lt;a href=&quot;\nhttp://someimage.com/xTMTvmI&quot; rel=&quot;nofollow&quot; target=&quot;_NEW&quot;&gt;\nhttp://someimage.com/xTMTvmI&lt;/a&gt;\n\n\nSample and screenshots included\n\n- TheCodeGuru\n","torrent":{"xt":"urn:btih:59469597f185e9e1a9dca0cfa7757406db00b935","amp;dn":"Dhoom+Machale+-+Dhoom+3+-+Full+HD+1080p+-+TheCodeGuru","amp;tr":["udp%3A%2F%2Ftracker.openbittorrent.com%3A80","udp%3A%2F%2Fopen.demonii.com%3A1337","udp%3A%2F%2Ftracker.coppersurfer.tk%3A6969","udp%3A%2F%2Fexodus.desync.com%3A6969"],"infoHash":"59469597f185e9e1a9dca0cfa7757406db00b935","infoHashBuffer":{"type":"Buffer","data":[89,70,149,151,241,133,233,225,169,220,160,207,167,117,116,6,219,0,185,53]},"announce":[],"urlList":[]}}